<?xml version="1.0" standalone="no"?>
<!DOCTYPE svg PUBLIC "-//W3C//DTD SVG 20010904//EN" "http://www.w3.org/TR/2001/REC-SVG-20010904/DTD/svg10.dtd">
<!-- Created using Krita: https://krita.org -->
<svg xmlns="http://www.w3.org/2000/svg" 
    xmlns:xlink="http://www.w3.org/1999/xlink"
    xmlns:krita="http://krita.org/namespaces/svg/krita"
    xmlns:sodipodi="http://sodipodi.sourceforge.net/DTD/sodipodi-0.dtd"
    width="184.8pt"
    height="182.64pt"
    viewBox="0 0 184.8 182.64">
<defs/>
<ellipse id="shape0" transform="matrix(0.835857867694163 0 0 0.835857867694163 0.857505304176096 0.885287694407124)" rx="109.519209793979" ry="108.157030567686" cx="109.519209793979" cy="108.157030567686" fill="#800000" stroke="#800000" stroke-width="1.92" stroke-linecap="square" stroke-linejoin="bevel"/><path id="shape01" transform="matrix(0.330365476714605 0 0 0.336173743204754 47.1166874216274 9.94354145849646)" fill="#f7eeee" stroke="#800000" stroke-width="1" stroke-linecap="square" stroke-linejoin="bevel" d="M78.6493 0L78.6493 20.8389L0 20.8389L0 436.617L29.0767 436.617L29.0767 50.9681L78.6493 50.9681L78.6493 472.521L271.379 436.617L271.379 377.867L271.379 35.9789ZM114.105 252.455C107.626 252.455 102.373 245.374 102.373 236.638C102.373 227.904 107.626 220.822 114.105 220.822C120.583 220.822 125.837 227.904 125.837 236.638C125.837 245.374 120.583 252.455 114.105 252.455Z" sodipodi:nodetypes="ccccccccccccccccc"/><g id="group1" transform="matrix(0.719999988110035 0 0 0.719999988110035 -27.599999544218 -31.4399976675852)" fill="none"/><g id="group2" transform="matrix(0.719999988110035 0 0 0.719999988110035 -27.599999544218 -31.4399976675852)" fill="none"/><g id="group3" transform="matrix(0.719999988110035 0 0 0.719999988110035 -27.599999544218 -31.4399976675852)" fill="none"/><g id="group4" transform="matrix(0.719999988110035 0 0 0.719999988110035 -27.599999544218 -31.4399976675852)" fill="none"/><g id="group5" transform="matrix(0.719999988110035 0 0 0.719999988110035 -27.599999544218 -31.4399976675852)" fill="none"/><g id="group6" transform="matrix(0.719999988110035 0 0 0.719999988110035 -27.599999544218 -31.4399976675852)" fill="none"/><g id="group7" transform="matrix(0.719999988110035 0 0 0.719999988110035 -27.599999544218 -31.4399976675852)" fill="none"/><g id="group8" transform="matrix(0.719999988110035 0 0 0.719999988110035 -27.599999544218 -31.4399976675852)" fill="none"/><g id="group9" transform="matrix(0.719999988110035 0 0 0.719999988110035 -27.599999544218 -31.4399976675852)" fill="none"/><g id="group10" transform="matrix(0.719999988110035 0 0 0.719999988110035 -27.599999544218 -31.4399976675852)" fill="none"/><g id="group11" transform="matrix(0.719999988110035 0 0 0.719999988110035 -27.599999544218 -31.4399976675852)" fill="none"/><g id="group12" transform="matrix(0.719999988110035 0 0 0.719999988110035 -27.599999544218 -31.4399976675852)" fill="none"/><g id="group13" transform="matrix(0.719999988110035 0 0 0.719999988110035 -27.599999544218 -31.4399976675852)" fill="none"/><g id="group14" transform="matrix(0.719999988110035 0 0 0.719999988110035 -27.599999544218 -31.4399976675852)" fill="none"/><g id="group15" transform="matrix(0.719999988110035 0 0 0.719999988110035 -27.599999544218 -31.4399976675852)" fill="none"/>
</svg>
